<?xml version="1.0" standalone="no"?>
<!DOCTYPE svg PUBLIC "-//W3C//DTD SVG 20010904//EN"
 "http://www.w3.org/TR/2001/REC-SVG-20010904/DTD/svg10.dtd">
<svg version="1.0" xmlns="http://www.w3.org/2000/svg"
 width="628.000000pt" height="628.000000pt" viewBox="0 0 628.000000 628.000000"
 preserveAspectRatio="xMidYMid meet">
<metadata>
Created by potrace 1.11, written by Peter Selinger 2001-2013
</metadata>
<g transform="translate(0.000000,628.000000) scale(0.100000,-0.100000)"
fill="#000000" stroke="none">
<path d="M90 5585 c-10 -12 -11 -157 -5 -693 6 -605 8 -678 23 -689 11 -9 64
-13 178 -13 89 0 169 -3 178 -6 14 -6 16 -105 16 -1021 0 -680 -3 -1021 -10
-1034 -10 -18 -23 -19 -184 -19 -134 0 -176 -3 -185 -14 -8 -9 -10 -198 -9
-687 l3 -674 1214 -3 c917 -1 1217 1 1228 10 12 10 14 96 11 550 -2 296 0 538
3 538 9 0 49 -58 49 -71 0 -6 9 -27 21 -45 l21 -34 483 0 c417 0 486 2 499 15
8 8 17 15 20 15 3 0 6 -213 6 -473 0 -363 3 -477 13 -490 11 -16 103 -17 1257
-19 l1245 -3 -4 685 c-2 377 -5 688 -8 692 -2 5 -78 8 -168 8 -90 0 -166 4
-169 8 -3 5 -8 468 -12 1029 l-7 1021 22 12 c15 7 74 11 177 9 85 -1 157 0
159 3 9 9 6 1391 -3 1400 -4 4 -552 7 -1216 6 l-1208 -3 -18 -35 c-19 -38 -37
-79 -66 -150 -9 -25 -26 -64 -36 -87 -10 -23 -18 -46 -18 -52 0 -5 -7 -23 -15
-40 -8 -17 -22 -45 -30 -62 -8 -17 -15 -37 -15 -44 0 -7 -6 -26 -14 -42 -15
-31 -31 -69 -66 -153 -12 -30 -29 -67 -36 -82 -8 -14 -14 -33 -14 -41 0 -9 -6
-28 -14 -44 -14 -29 -28 -61 -66 -153 -13 -30 -29 -69 -36 -87 -8 -17 -14 -36
-14 -41 0 -6 -8 -25 -17 -44 -9 -18 -22 -45 -30 -60 -7 -14 -13 -35 -13 -46 0
-11 -7 -25 -15 -32 -8 -7 -15 -20 -15 -29 0 -9 -7 -29 -15 -45 -8 -15 -15 -36
-15 -46 0 -10 -6 -23 -14 -29 -11 -9 -18 -4 -35 24 -11 20 -21 39 -21 42 0 3
-10 27 -21 52 -12 25 -28 61 -36 78 -33 78 -44 102 -78 178 -36 79 -49 107
-77 175 -8 19 -23 53 -32 75 -10 22 -24 55 -32 73 -17 40 -32 75 -79 177 -20
44 -42 94 -49 110 -21 51 -54 126 -101 230 -8 17 -16 37 -19 45 -3 8 -10 22
-14 30 -24 43 -42 83 -42 94 0 8 -9 25 -21 40 l-20 26 -1179 0 c-1037 0 -1179
-2 -1190 -15z m2299 -200 c13 -27 31 -66 39 -85 8 -19 19 -42 24 -50 4 -8 11
-22 14 -30 6 -18 24 -58 53 -125 41 -90 51 -114 66 -147 8 -18 25 -58 38 -88
14 -30 39 -89 57 -130 18 -41 43 -100 57 -130 13 -30 30 -68 37 -85 7 -16 22
-50 34 -75 46 -100 92 -205 125 -283 33 -75 59 -134 73 -159 8 -14 14 -33 14
-41 0 -8 7 -20 15 -27 8 -7 15 -23 15 -35 0 -12 7 -28 15 -35 8 -7 15 -20 15
-29 0 -10 7 -26 15 -37 8 -10 15 -27 15 -36 0 -31 18 -28 39 8 12 19 21 42 21
51 0 8 6 27 14 41 28 54 56 119 56 130 0 6 7 24 15 41 8 17 22 45 30 62 8 17
15 37 15 44 0 7 7 27 15 44 8 17 22 45 30 62 8 17 15 35 15 41 0 6 9 29 19 52
10 23 27 61 36 86 22 56 43 106 61 143 8 16 14 35 14 42 0 7 7 26 15 42 22 43
55 121 55 132 0 5 8 24 17 43 9 18 22 45 30 60 7 14 13 33 13 41 0 9 6 28 14
44 15 31 31 69 66 153 12 30 29 67 36 82 8 14 14 35 14 46 0 11 7 25 15 32 8
7 15 22 15 34 0 12 7 31 15 42 8 10 15 29 15 41 0 12 9 27 19 33 14 7 366 9
1098 8 l1078 -3 0 -545 0 -545 -175 -3 c-96 -1 -178 -6 -182 -10 -7 -7 -11
-1594 -5 -2160 2 -176 5 -214 17 -223 9 -6 80 -9 172 -7 98 1 161 -1 168 -8 7
-7 9 -183 8 -530 l-3 -519 -530 -3 c-291 -1 -781 1 -1088 6 -478 6 -559 9
-567 22 -11 16 -14 998 -4 1024 5 14 35 16 224 16 168 0 220 3 229 13 12 15
21 1567 9 1567 -10 0 -48 -51 -48 -66 0 -7 -8 -27 -17 -46 -9 -18 -22 -45 -30
-60 -7 -14 -13 -33 -13 -41 0 -8 -7 -20 -15 -27 -8 -7 -15 -23 -15 -35 0 -12
-7 -28 -15 -35 -8 -7 -15 -19 -15 -27 0 -8 -6 -27 -14 -41 -14 -27 -46 -96
-72 -159 -8 -18 -20 -48 -28 -65 -26 -64 -58 -133 -72 -160 -8 -14 -14 -33
-14 -41 0 -8 -7 -20 -15 -27 -8 -7 -15 -23 -15 -35 0 -12 -7 -28 -15 -35 -8
-7 -15 -19 -15 -27 0 -8 -6 -27 -13 -41 -8 -15 -21 -43 -29 -62 -8 -19 -22
-51 -30 -70 -32 -71 -61 -136 -73 -165 -7 -16 -20 -46 -28 -65 -9 -19 -18 -42
-21 -50 -3 -8 -10 -22 -15 -30 -7 -13 -36 -81 -55 -130 -3 -8 -10 -22 -14 -30
-12 -20 -39 -80 -46 -102 -5 -17 -33 -18 -400 -18 l-395 0 -6 23 c-4 12 -12
36 -20 52 -96 212 -138 308 -159 360 -7 17 -20 46 -28 65 -9 19 -25 55 -36 80
-11 25 -27 61 -36 82 -9 20 -16 40 -16 46 0 5 -7 15 -15 22 -8 7 -15 23 -15
35 0 12 -7 28 -15 35 -8 7 -15 23 -15 35 0 12 -7 28 -15 35 -8 7 -15 19 -15
27 0 8 -6 27 -14 41 -34 64 -56 114 -56 126 0 7 -7 19 -15 26 -8 7 -15 21 -15
30 0 10 -7 31 -14 47 -15 28 -80 171 -96 208 -9 23 -44 103 -66 155 -9 19 -22
48 -30 63 -8 16 -14 37 -14 47 0 16 -26 40 -43 40 -3 0 -6 -348 -6 -774 -2
-695 0 -775 14 -790 14 -13 44 -16 197 -15 99 0 185 -4 189 -8 13 -13 12
-1014 -1 -1027 -14 -14 -2088 -26 -2108 -12 -9 7 -12 122 -12 521 0 398 3 515
12 522 7 5 92 10 188 12 117 2 177 7 182 15 4 6 8 541 8 1188 0 884 -3 1179
-12 1184 -6 4 -89 9 -185 12 -116 3 -176 9 -183 17 -10 13 -16 1048 -5 1065 4
7 370 9 1058 8 l1051 -3 25 -50z m-209 -2667 c0 -11 6 -32 14 -46 8 -15 24
-49 37 -77 12 -27 28 -62 35 -77 8 -14 14 -33 14 -41 0 -8 7 -20 15 -27 8 -7
15 -19 15 -26 0 -7 16 -49 36 -91 19 -43 42 -94 51 -113 9 -19 22 -48 30 -63
28 -54 18 -58 -134 -51 -76 4 -142 11 -148 16 -9 8 -8 605 1 620 9 14 34 -4
34 -24z m1934 0 c3 -13 6 -146 6 -297 0 -241 -2 -277 -17 -293 -14 -16 -33
-18 -143 -18 -143 0 -152 4 -123 62 9 18 22 45 30 60 7 14 13 33 13 41 0 8 7
20 15 27 8 7 15 20 15 29 0 8 14 45 31 81 41 87 54 116 79 175 11 28 27 62 35
77 8 14 15 35 15 45 0 38 34 46 44 11z"/>
<path d="M360 5323 c-4 -96 1 -847 5 -854 4 -5 82 -9 179 -9 134 0 176 -3 185
-14 8 -10 10 -359 9 -1307 l-3 -1294 -187 -3 c-140 -2 -188 -6 -188 -15 -2
-221 1 -810 4 -816 5 -8 1895 -2 1908 6 10 5 10 465 1 671 l-6 152 -201 2
-201 3 -3 984 c-1 542 2 989 6 993 5 5 32 11 60 15 45 5 52 3 57 -13 7 -20 18
-48 54 -129 22 -49 31 -68 66 -150 10 -22 22 -47 27 -55 4 -8 11 -22 14 -30 6
-18 24 -58 53 -125 13 -27 29 -63 36 -80 13 -29 24 -55 64 -145 10 -25 33 -76
51 -115 56 -125 77 -174 104 -240 14 -34 34 -79 65 -150 22 -49 31 -68 66
-150 10 -22 22 -47 27 -55 4 -8 11 -22 14 -30 6 -18 24 -58 53 -125 13 -27 29
-63 36 -80 81 -185 96 -215 108 -216 36 -4 611 2 618 6 4 3 17 26 29 53 12 26
27 61 35 77 8 17 23 53 35 80 12 28 27 64 35 80 7 17 20 46 28 65 35 81 50
116 59 130 4 8 11 22 14 30 3 8 15 35 26 60 20 46 35 80 60 140 18 42 37 88
67 155 22 49 31 68 66 150 10 22 22 47 27 55 4 8 11 22 14 30 3 8 12 31 21 50
8 19 22 51 30 70 8 19 23 53 33 75 10 22 25 56 33 75 28 65 45 105 77 175 39
87 52 117 80 180 12 28 27 64 35 80 7 17 16 40 20 51 8 29 38 35 83 20 l37
-13 0 -989 0 -989 -230 -3 c-126 -1 -232 -6 -235 -11 -3 -5 -4 -191 -2 -414
l2 -405 253 -6 c138 -4 583 -8 987 -9 l735 -2 0 420 0 420 -178 3 c-130 2
-179 6 -182 15 -2 6 -6 589 -9 1294 -5 1178 -4 1283 11 1298 14 14 39 16 181
14 140 -3 166 -1 176 12 8 12 10 133 8 438 l-2 421 -997 -2 -997 -3 -15 -30
c-8 -16 -20 -42 -28 -57 -7 -14 -13 -35 -13 -46 0 -11 -7 -25 -15 -32 -8 -7
-15 -21 -15 -32 0 -11 -6 -32 -14 -46 -7 -15 -24 -52 -36 -82 -12 -30 -29 -67
-36 -82 -8 -14 -14 -33 -14 -41 0 -9 -6 -28 -14 -44 -7 -15 -21 -46 -31 -68
-9 -22 -23 -53 -31 -68 -8 -16 -14 -33 -14 -38 0 -11 -33 -89 -55 -132 -8 -16
-15 -35 -15 -42 0 -7 -7 -28 -16 -47 -38 -76 -44 -90 -44 -107 0 -9 -6 -25
-13 -36 -7 -11 -23 -47 -36 -80 -12 -33 -29 -75 -37 -92 -28 -65 -42 -99 -59
-143 -9 -25 -23 -58 -30 -75 -7 -16 -22 -55 -35 -85 -12 -30 -29 -67 -36 -82
-8 -14 -14 -33 -14 -41 0 -9 -7 -29 -15 -46 -8 -17 -22 -45 -30 -62 -8 -17
-15 -37 -15 -44 0 -8 -9 -30 -21 -49 -22 -37 -49 -48 -49 -20 0 14 -10 38 -67
164 -24 53 -50 113 -77 175 -7 17 -23 53 -35 80 -44 97 -52 115 -68 152 -9 21
-20 45 -25 53 -4 8 -11 22 -14 30 -9 24 -42 101 -92 210 -8 19 -21 49 -28 65
-12 28 -51 117 -94 210 -17 39 -35 80 -65 147 -7 18 -30 67 -49 109 -20 42
-36 79 -36 83 0 4 -14 37 -31 74 -18 37 -38 82 -45 100 -14 33 -26 60 -66 150
l-23 52 -967 0 c-533 0 -968 -3 -968 -7z"/>
</g>
</svg>
